<svg width="17" height="17" viewBox="0 0 17 17" fill="none" xmlns="http://www.w3.org/2000/svg">
<path d="M14.3846 3.14815H9.15385V0.62963C9.15385 0.462641 9.08496 0.302493 8.96234 0.184414C8.83972 0.0663358 8.67341 0 8.5 0C8.32659 0 8.16028 0.0663358 8.03766 0.184414C7.91504 0.302493 7.84615 0.462641 7.84615 0.62963V3.14815H2.61538C1.92174 3.14815 1.25651 3.41349 0.766028 3.8858C0.275549 4.35812 0 4.99871 0 5.66667V14.4815C0 15.1494 0.275549 15.79 0.766028 16.2623C1.25651 16.7347 1.92174 17 2.61538 17H14.3846C15.0783 17 15.7435 16.7347 16.234 16.2623C16.7245 15.79 17 15.1494 17 14.4815V5.66667C17 4.99871 16.7245 4.35812 16.234 3.8858C15.7435 3.41349 15.0783 3.14815 14.3846 3.14815ZM15.6923 14.4815C15.6923 14.8155 15.5545 15.1358 15.3093 15.3719C15.0641 15.6081 14.7314 15.7407 14.3846 15.7407H2.61538C2.26856 15.7407 1.93595 15.6081 1.69071 15.3719C1.44547 15.1358 1.30769 14.8155 1.30769 14.4815V5.66667C1.30769 5.33269 1.44547 5.01239 1.69071 4.77624C1.93595 4.54008 2.26856 4.40741 2.61538 4.40741H14.3846C14.7314 4.40741 15.0641 4.54008 15.3093 4.77624C15.5545 5.01239 15.6923 5.33269 15.6923 5.66667V14.4815ZM11.4423 10.0741H5.55769C4.95075 10.0741 4.36868 10.3062 3.93951 10.7195C3.51034 11.1328 3.26923 11.6933 3.26923 12.2778C3.26923 12.8622 3.51034 13.4228 3.93951 13.836C4.36868 14.2493 4.95075 14.4815 5.55769 14.4815H11.4423C12.0492 14.4815 12.6313 14.2493 13.0605 13.836C13.4897 13.4228 13.7308 12.8622 13.7308 12.2778C13.7308 11.6933 13.4897 11.1328 13.0605 10.7195C12.6313 10.3062 12.0492 10.0741 11.4423 10.0741ZM9.15385 11.3333V13.2222H7.84615V11.3333H9.15385ZM4.57692 12.2778C4.57692 12.0273 4.68025 11.7871 4.86418 11.61C5.04811 11.4328 5.29758 11.3333 5.55769 11.3333H6.53846V13.2222H5.55769C5.29758 13.2222 5.04811 13.1227 4.86418 12.9456C4.68025 12.7685 4.57692 12.5283 4.57692 12.2778ZM11.4423 13.2222H10.4615V11.3333H11.4423C11.7024 11.3333 11.9519 11.4328 12.1358 11.61C12.3197 11.7871 12.4231 12.0273 12.4231 12.2778C12.4231 12.5283 12.3197 12.7685 12.1358 12.9456C11.9519 13.1227 11.7024 13.2222 11.4423 13.2222ZM3.92308 7.87037C3.92308 7.68358 3.9806 7.50098 4.08837 7.34566C4.19613 7.19035 4.34931 7.0693 4.52852 6.99782C4.70773 6.92633 4.90493 6.90763 5.09518 6.94407C5.28544 6.98051 5.46019 7.07046 5.59735 7.20255C5.73452 7.33463 5.82793 7.50291 5.86577 7.68612C5.90361 7.86932 5.88419 8.05922 5.80996 8.23179C5.73573 8.40437 5.61002 8.55187 5.44873 8.65565C5.28745 8.75942 5.09782 8.81481 4.90385 8.81481C4.64373 8.81481 4.39427 8.71531 4.21034 8.53819C4.02641 8.36108 3.92308 8.12085 3.92308 7.87037ZM11.1154 7.87037C11.1154 7.68358 11.1729 7.50098 11.2807 7.34566C11.3884 7.19035 11.5416 7.0693 11.7208 6.99782C11.9 6.92633 12.0972 6.90763 12.2875 6.94407C12.4777 6.98051 12.6525 7.07046 12.7897 7.20255C12.9268 7.33463 13.0202 7.50291 13.0581 7.68612C13.0959 7.86932 13.0765 8.05922 13.0023 8.23179C12.928 8.40437 12.8023 8.55187 12.641 8.65565C12.4798 8.75942 12.2901 8.81481 12.0962 8.81481C11.836 8.81481 11.5866 8.71531 11.4026 8.53819C11.2187 8.36108 11.1154 8.12085 11.1154 7.87037Z" fill="#FFDC27"/>
</svg>
