<svg width="20" height="21" viewBox="0 0 20 21" fill="none" xmlns="http://www.w3.org/2000/svg">
<path d="M19.5874 0.418191C19.4077 0.238624 19.1834 0.110205 18.9376 0.0461592C18.6917 -0.0178861 18.4333 -0.0152412 18.1888 0.0538212H18.1754L1.03398 5.25502C0.754946 5.33527 0.506979 5.49861 0.323098 5.7233C0.139217 5.94799 0.0281464 6.22337 0.00467693 6.51276C-0.0187925 6.80215 0.0464527 7.09182 0.191725 7.34321C0.336997 7.59459 0.555401 7.79576 0.817857 7.91992L8.46426 11.5413L12.0856 19.1877C12.2 19.4326 12.382 19.6396 12.6102 19.7844C12.8383 19.9292 13.1032 20.0057 13.3734 20.0048C13.4145 20.0048 13.4556 20.0031 13.4967 19.9995C13.785 19.9761 14.0594 19.8652 14.2829 19.6814C14.5063 19.4977 14.6683 19.25 14.747 18.9716L19.9446 1.83012C19.9446 1.82566 19.9446 1.82119 19.9446 1.81673C20.0145 1.57289 20.0183 1.31482 19.9556 1.06904C19.8928 0.823251 19.7657 0.598611 19.5874 0.418191ZM13.3815 18.5626L13.377 18.5751L9.86191 11.1546L14.0807 6.93487C14.2091 6.7998 14.2796 6.61993 14.2772 6.43363C14.2748 6.24733 14.1997 6.06933 14.068 5.93759C13.9362 5.80584 13.7582 5.73077 13.5719 5.72839C13.3856 5.726 13.2058 5.79649 13.0707 5.92482L8.85096 10.1436L1.4296 6.62855H1.44211L18.5764 1.42914L13.3815 18.5626Z" fill="white"/>
</svg>
