<svg width="15" height="13" viewBox="0 0 15 13" fill="none" xmlns="http://www.w3.org/2000/svg">
<path d="M14.915 12.209C13.8177 10.4993 12.1268 9.2734 10.1534 8.69226C11.1295 8.16856 11.8879 7.37055 12.3121 6.42081C12.7363 5.47106 12.8028 4.42207 12.5015 3.43495C12.2001 2.44783 11.5476 1.57714 10.6441 0.956607C9.74053 0.336072 8.63597 0 7.5 0C6.36403 0 5.25947 0.336072 4.35594 0.956607C3.45241 1.57714 2.79987 2.44783 2.49853 3.43495C2.1972 4.42207 2.26373 5.47106 2.6879 6.42081C3.11208 7.37055 3.87045 8.16856 4.84655 8.69226C2.87321 9.27275 1.1823 10.4987 0.0850403 12.209C0.0448019 12.2681 0.0181121 12.3339 0.0065455 12.4025C-0.00502106 12.4711 -0.00123002 12.541 0.0176949 12.6083C0.0366199 12.6755 0.0702954 12.7386 0.116735 12.794C0.163174 12.8493 0.221436 12.8957 0.288083 12.9304C0.354731 12.9651 0.428414 12.9874 0.504785 12.996C0.581156 13.0046 0.658668 12.9993 0.732748 12.9805C0.806828 12.9617 0.875975 12.9297 0.936109 12.8864C0.996243 12.8431 1.04615 12.7894 1.08288 12.7284C2.44022 10.6142 4.83935 9.35197 7.5 9.35197C10.1607 9.35197 12.5598 10.6142 13.9171 12.7284C13.9539 12.7894 14.0038 12.8431 14.0639 12.8864C14.124 12.9297 14.1932 12.9617 14.2673 12.9805C14.3413 12.9993 14.4188 13.0046 14.4952 12.996C14.5716 12.9874 14.6453 12.9651 14.7119 12.9304C14.7786 12.8957 14.8368 12.8493 14.8833 12.794C14.9297 12.7386 14.9634 12.6755 14.9823 12.6083C15.0012 12.541 15.005 12.4711 14.9935 12.4025C14.9819 12.3339 14.9552 12.2681 14.915 12.209ZM3.46543 4.67687C3.46543 3.9577 3.70205 3.25468 4.14538 2.65671C4.5887 2.05874 5.21882 1.59268 5.95604 1.31747C6.69326 1.04225 7.50448 0.970243 8.28711 1.11055C9.06973 1.25085 9.78862 1.59716 10.3529 2.10569C10.9171 2.61422 11.3014 3.26213 11.457 3.96748C11.6127 4.67283 11.5328 5.40395 11.2275 6.06838C10.9221 6.7328 10.405 7.3007 9.74149 7.70025C9.078 8.0998 8.29796 8.31306 7.5 8.31306C6.43032 8.31203 5.40477 7.9286 4.64839 7.2469C3.89201 6.56521 3.46658 5.64093 3.46543 4.67687Z" fill="#FFDC27"/>
</svg>
